<svg id="Capa_1" enable-background="new 0 0 497 497" height="512" viewBox="0 0 497 497" width="512" xmlns="http://www.w3.org/2000/svg"><g><path d="m437 443.5h-377c-33.137 0-60-26.863-60-60v-270c0-33.137 26.863-60 60-60h377c33.137 0 60 26.863 60 60v270c0 33.137-26.863 60-60 60z" fill="#ff5a47"/><path d="m60 413.5c-16.542 0-30-13.458-30-30v-270c0-16.542 13.458-30 30-30h377c16.542 0 30 13.458 30 30v270c0 16.542-13.458 30-30 30z" fill="#fda13f"/><path d="m317 383.5v-30l-60-30 30 60z" fill="#565959"/><path d="m180 383.5v-30l107-45v75z" fill="#6f706f"/><path d="m287 293.5-75 30 75 30h30v-60z" fill="#404242"/><path d="m180 293.5h107v60h-107z" fill="#565959"/><circle cx="105" cy="338.5" fill="#fff7ba" r="45"/><circle cx="105" cy="338.5" fill="#fff04a" r="15"/><path d="m437 113.5h-29.996l-113.504 74.987 113.5 75.013 29.999-.026z" fill="#fcd72b"/><path d="m60 113.5h347v150h-347z" fill="#fff04a"/><circle cx="392" cy="338.5" fill="#fff7ba" r="45"/><circle cx="392" cy="338.5" fill="#fff04a" r="15"/><g fill="#fcd72b"><path d="m407 151h-317c-4.143 0-7.5-3.357-7.5-7.5s3.357-7.5 7.5-7.5h317c4.143 0 7.5 3.357 7.5 7.5s-3.357 7.5-7.5 7.5z"/><path d="m407 181h-317c-4.143 0-7.5-3.357-7.5-7.5s3.357-7.5 7.5-7.5h317c4.143 0 7.5 3.357 7.5 7.5s-3.357 7.5-7.5 7.5z"/><path d="m407 211h-317c-4.143 0-7.5-3.357-7.5-7.5s3.357-7.5 7.5-7.5h317c4.143 0 7.5 3.357 7.5 7.5s-3.357 7.5-7.5 7.5z"/><path d="m407 241h-317c-4.143 0-7.5-3.357-7.5-7.5s3.357-7.5 7.5-7.5h317c4.143 0 7.5 3.357 7.5 7.5s-3.357 7.5-7.5 7.5z"/></g></g></svg>